solid Cuvet Holder
   facet normal -1.000000e+000 0.000000e+000 0.000000e+000
      outer loop
         vertex 0.000000e+000 2.000000e+001 1.400000e+001
         vertex 0.000000e+000 4.500000e+001 1.800000e+001
         vertex 0.000000e+000 4.000000e+001 1.400000e+001
      endloop
   endfacet
   facet normal -1.000000e+000 0.000000e+000 0.000000e+000
      outer loop
         vertex 0.000000e+000 4.000000e+001 1.400000e+001
         vertex 0.000000e+000 4.500000e+001 1.800000e+001
         vertex 0.000000e+000 4.500000e+001 0.000000e+000
      endloop
   endfacet
   facet normal -1.000000e+000 0.000000e+000 0.000000e+000
      outer loop
         vertex 0.000000e+000 4.000000e+001 1.400000e+001
         vertex 0.000000e+000 4.500000e+001 0.000000e+000
         vertex 0.000000e+000 4.000000e+001 3.500000e+000
      endloop
   endfacet
   facet normal -1.000000e+000 0.000000e+000 0.000000e+000
      outer loop
         vertex 0.000000e+000 4.000000e+001 3.500000e+000
         vertex 0.000000e+000 4.500000e+001 0.000000e+000
         vertex 0.000000e+000 2.000000e+001 3.500000e+000
      endloop
   endfacet
   facet normal -1.000000e+000 0.000000e+000 0.000000e+000
      outer loop
         vertex 0.000000e+000 2.000000e+001 3.500000e+000
         vertex 0.000000e+000 4.500000e+001 0.000000e+000
         vertex 0.000000e+000 0.000000e+000 0.000000e+000
      endloop
   endfacet
   facet normal -1.000000e+000 0.000000e+000 0.000000e+000
      outer loop
         vertex 0.000000e+000 2.000000e+001 3.500000e+000
         vertex 0.000000e+000 0.000000e+000 0.000000e+000
         vertex 0.000000e+000 2.000000e+001 1.400000e+001
      endloop
   endfacet
   facet normal -1.000000e+000 0.000000e+000 0.000000e+000
      outer loop
         vertex 0.000000e+000 2.000000e+001 1.400000e+001
         vertex 0.000000e+000 0.000000e+000 0.000000e+000
         vertex 0.000000e+000 0.000000e+000 1.800000e+001
      endloop
   endfacet
   facet normal -1.000000e+000 0.000000e+000 0.000000e+000
      outer loop
         vertex 0.000000e+000 2.000000e+001 1.400000e+001
         vertex 0.000000e+000 0.000000e+000 1.800000e+001
         vertex 0.000000e+000 4.500000e+001 1.800000e+001
      endloop
   endfacet
   facet normal 0.000000e+000 0.000000e+000 1.000000e+000
      outer loop
         vertex 0.000000e+000 0.000000e+000 1.800000e+001
         vertex 3.285000e+000 4.575000e+000 1.800000e+001
         vertex 3.285000e+000 1.042500e+001 1.800000e+001
      endloop
   endfacet
   facet normal 0.000000e+000 0.000000e+000 1.000000e+000
      outer loop
         vertex 3.285000e+000 4.575000e+000 1.800000e+001
         vertex 0.000000e+000 0.000000e+000 1.800000e+001
         vertex 1.471500e+001 4.575000e+000 1.800000e+001
      endloop
   endfacet
   facet normal 0.000000e+000 0.000000e+000 1.000000e+000
      outer loop
         vertex 1.471500e+001 4.575000e+000 1.800000e+001
         vertex 0.000000e+000 0.000000e+000 1.800000e+001
         vertex 1.800000e+001 0.000000e+000 1.800000e+001
      endloop
   endfacet
   facet normal 0.000000e+000 0.000000e+000 1.000000e+000
      outer loop
         vertex 1.471500e+001 4.575000e+000 1.800000e+001
         vertex 1.800000e+001 0.000000e+000 1.800000e+001
         vertex 1.471500e+001 1.042500e+001 1.800000e+001
      endloop
   endfacet
   facet normal 0.000000e+000 0.000000e+000 1.000000e+000
      outer loop
         vertex 1.471500e+001 1.042500e+001 1.800000e+001
         vertex 1.800000e+001 0.000000e+000 1.800000e+001
         vertex 1.800000e+001 4.500000e+001 1.800000e+001
      endloop
   endfacet
   facet normal 0.000000e+000 0.000000e+000 1.000000e+000
      outer loop
         vertex 1.471500e+001 1.042500e+001 1.800000e+001
         vertex 1.800000e+001 4.500000e+001 1.800000e+001
         vertex 3.285000e+000 1.042500e+001 1.800000e+001
      endloop
   endfacet
   facet normal 0.000000e+000 0.000000e+000 1.000000e+000
      outer loop
         vertex 3.285000e+000 1.042500e+001 1.800000e+001
         vertex 1.800000e+001 4.500000e+001 1.800000e+001
         vertex 0.000000e+000 4.500000e+001 1.800000e+001
      endloop
   endfacet
   facet normal 0.000000e+000 0.000000e+000 1.000000e+000
      outer loop
         vertex 3.285000e+000 1.042500e+001 1.800000e+001
         vertex 0.000000e+000 4.500000e+001 1.800000e+001
         vertex 0.000000e+000 0.000000e+000 1.800000e+001
      endloop
   endfacet
   facet normal 1.000000e+000 0.000000e+000 0.000000e+000
      outer loop
         vertex 1.800000e+001 4.500000e+001 0.000000e+000
         vertex 1.800000e+001 4.000000e+001 3.500000e+000
         vertex 1.800000e+001 2.000000e+001 3.500000e+000
      endloop
   endfacet
   facet normal 1.000000e+000 0.000000e+000 0.000000e+000
      outer loop
         vertex 1.800000e+001 4.000000e+001 3.500000e+000
         vertex 1.800000e+001 4.500000e+001 0.000000e+000
         vertex 1.800000e+001 4.000000e+001 1.400000e+001
      endloop
   endfacet
   facet normal 1.000000e+000 0.000000e+000 0.000000e+000
      outer loop
         vertex 1.800000e+001 4.000000e+001 1.400000e+001
         vertex 1.800000e+001 4.500000e+001 0.000000e+000
         vertex 1.800000e+001 4.500000e+001 1.800000e+001
      endloop
   endfacet
   facet normal 1.000000e+000 0.000000e+000 0.000000e+000
      outer loop
         vertex 1.800000e+001 4.000000e+001 1.400000e+001
         vertex 1.800000e+001 4.500000e+001 1.800000e+001
         vertex 1.800000e+001 2.000000e+001 1.400000e+001
      endloop
   endfacet
   facet normal 1.000000e+000 0.000000e+000 0.000000e+000
      outer loop
         vertex 1.800000e+001 2.000000e+001 1.400000e+001
         vertex 1.800000e+001 4.500000e+001 1.800000e+001
         vertex 1.800000e+001 0.000000e+000 1.800000e+001
      endloop
   endfacet
   facet normal 1.000000e+000 0.000000e+000 0.000000e+000
      outer loop
         vertex 1.800000e+001 2.000000e+001 1.400000e+001
         vertex 1.800000e+001 0.000000e+000 1.800000e+001
         vertex 1.800000e+001 2.000000e+001 3.500000e+000
      endloop
   endfacet
   facet normal 1.000000e+000 0.000000e+000 0.000000e+000
      outer loop
         vertex 1.800000e+001 2.000000e+001 3.500000e+000
         vertex 1.800000e+001 0.000000e+000 1.800000e+001
         vertex 1.800000e+001 0.000000e+000 0.000000e+000
      endloop
   endfacet
   facet normal 1.000000e+000 0.000000e+000 0.000000e+000
      outer loop
         vertex 1.800000e+001 2.000000e+001 3.500000e+000
         vertex 1.800000e+001 0.000000e+000 0.000000e+000
         vertex 1.800000e+001 4.500000e+001 0.000000e+000
      endloop
   endfacet
   facet normal 0.000000e+000 0.000000e+000 -1.000000e+000
      outer loop
         vertex 3.285000e+000 1.042500e+001 0.000000e+000
         vertex 3.285000e+000 4.575000e+000 0.000000e+000
         vertex 0.000000e+000 0.000000e+000 0.000000e+000
      endloop
   endfacet
   facet normal 0.000000e+000 0.000000e+000 -1.000000e+000
      outer loop
         vertex 0.000000e+000 0.000000e+000 0.000000e+000
         vertex 3.285000e+000 4.575000e+000 0.000000e+000
         vertex 1.800000e+001 0.000000e+000 0.000000e+000
      endloop
   endfacet
   facet normal 0.000000e+000 0.000000e+000 -1.000000e+000
      outer loop
         vertex 3.285000e+000 4.575000e+000 0.000000e+000
         vertex 1.471500e+001 4.575000e+000 0.000000e+000
         vertex 1.800000e+001 0.000000e+000 0.000000e+000
      endloop
   endfacet
   facet normal 0.000000e+000 0.000000e+000 -1.000000e+000
      outer loop
         vertex 1.800000e+001 0.000000e+000 0.000000e+000
         vertex 1.471500e+001 4.575000e+000 0.000000e+000
         vertex 1.471500e+001 1.042500e+001 0.000000e+000
      endloop
   endfacet
   facet normal 0.000000e+000 0.000000e+000 -1.000000e+000
      outer loop
         vertex 1.800000e+001 0.000000e+000 0.000000e+000
         vertex 1.471500e+001 1.042500e+001 0.000000e+000
         vertex 1.800000e+001 4.500000e+001 0.000000e+000
      endloop
   endfacet
   facet normal 0.000000e+000 0.000000e+000 -1.000000e+000
      outer loop
         vertex 1.800000e+001 4.500000e+001 0.000000e+000
         vertex 1.471500e+001 1.042500e+001 0.000000e+000
         vertex 3.285000e+000 1.042500e+001 0.000000e+000
      endloop
   endfacet
   facet normal 0.000000e+000 0.000000e+000 -1.000000e+000
      outer loop
         vertex 1.800000e+001 4.500000e+001 0.000000e+000
         vertex 3.285000e+000 1.042500e+001 0.000000e+000
         vertex 0.000000e+000 4.500000e+001 0.000000e+000
      endloop
   endfacet
   facet normal 0.000000e+000 0.000000e+000 -1.000000e+000
      outer loop
         vertex 0.000000e+000 4.500000e+001 0.000000e+000
         vertex 3.285000e+000 1.042500e+001 0.000000e+000
         vertex 0.000000e+000 0.000000e+000 0.000000e+000
      endloop
   endfacet
   facet normal 0.000000e+000 1.000000e+000 0.000000e+000
      outer loop
         vertex 1.550000e+001 4.500000e+001 2.500000e+000
         vertex 1.800000e+001 4.500000e+001 0.000000e+000
         vertex 2.500000e+000 4.500000e+001 2.500000e+000
      endloop
   endfacet
   facet normal 0.000000e+000 1.000000e+000 0.000000e+000
      outer loop
         vertex 2.500000e+000 4.500000e+001 2.500000e+000
         vertex 1.800000e+001 4.500000e+001 0.000000e+000
         vertex 0.000000e+000 4.500000e+001 0.000000e+000
      endloop
   endfacet
   facet normal 0.000000e+000 1.000000e+000 0.000000e+000
      outer loop
         vertex 2.500000e+000 4.500000e+001 2.500000e+000
         vertex 0.000000e+000 4.500000e+001 0.000000e+000
         vertex 2.500000e+000 4.500000e+001 1.550000e+001
      endloop
   endfacet
   facet normal 0.000000e+000 1.000000e+000 0.000000e+000
      outer loop
         vertex 2.500000e+000 4.500000e+001 1.550000e+001
         vertex 0.000000e+000 4.500000e+001 0.000000e+000
         vertex 0.000000e+000 4.500000e+001 1.800000e+001
      endloop
   endfacet
   facet normal 0.000000e+000 1.000000e+000 0.000000e+000
      outer loop
         vertex 2.500000e+000 4.500000e+001 1.550000e+001
         vertex 0.000000e+000 4.500000e+001 1.800000e+001
         vertex 1.550000e+001 4.500000e+001 1.550000e+001
      endloop
   endfacet
   facet normal 0.000000e+000 1.000000e+000 0.000000e+000
      outer loop
         vertex 1.550000e+001 4.500000e+001 1.550000e+001
         vertex 0.000000e+000 4.500000e+001 1.800000e+001
         vertex 1.800000e+001 4.500000e+001 1.800000e+001
      endloop
   endfacet
   facet normal 0.000000e+000 1.000000e+000 0.000000e+000
      outer loop
         vertex 1.550000e+001 4.500000e+001 1.550000e+001
         vertex 1.800000e+001 4.500000e+001 1.800000e+001
         vertex 1.550000e+001 4.500000e+001 2.500000e+000
      endloop
   endfacet
   facet normal 0.000000e+000 1.000000e+000 0.000000e+000
      outer loop
         vertex 1.550000e+001 4.500000e+001 2.500000e+000
         vertex 1.800000e+001 4.500000e+001 1.800000e+001
         vertex 1.800000e+001 4.500000e+001 0.000000e+000
      endloop
   endfacet
   facet normal 1.000000e+000 0.000000e+000 -1.334403e-016
      outer loop
         vertex 2.500000e+000 1.500000e+001 1.550000e+001
         vertex 2.500000e+000 2.000000e+001 1.400000e+001
         vertex 2.500000e+000 4.000000e+001 1.400000e+001
      endloop
   endfacet
   facet normal 1.000000e+000 0.000000e+000 -1.334403e-016
      outer loop
         vertex 2.500000e+000 2.000000e+001 1.400000e+001
         vertex 2.500000e+000 1.500000e+001 1.550000e+001
         vertex 2.500000e+000 2.000000e+001 3.500000e+000
      endloop
   endfacet
   facet normal 1.000000e+000 0.000000e+000 -1.334403e-016
      outer loop
         vertex 2.500000e+000 2.000000e+001 3.500000e+000
         vertex 2.500000e+000 1.500000e+001 1.550000e+001
         vertex 2.500000e+000 1.500000e+001 2.500000e+000
      endloop
   endfacet
   facet normal 1.000000e+000 0.000000e+000 -1.334403e-016
      outer loop
         vertex 2.500000e+000 2.000000e+001 3.500000e+000
         vertex 2.500000e+000 1.500000e+001 2.500000e+000
         vertex 2.500000e+000 4.000000e+001 3.500000e+000
      endloop
   endfacet
   facet normal 1.000000e+000 0.000000e+000 -1.334403e-016
      outer loop
         vertex 2.500000e+000 4.000000e+001 3.500000e+000
         vertex 2.500000e+000 1.500000e+001 2.500000e+000
         vertex 2.500000e+000 4.500000e+001 2.500000e+000
      endloop
   endfacet
   facet normal 1.000000e+000 0.000000e+000 -1.334403e-016
      outer loop
         vertex 2.500000e+000 4.000000e+001 3.500000e+000
         vertex 2.500000e+000 4.500000e+001 2.500000e+000
         vertex 2.500000e+000 4.000000e+001 1.400000e+001
      endloop
   endfacet
   facet normal 1.000000e+000 0.000000e+000 -1.334403e-016
      outer loop
         vertex 2.500000e+000 4.000000e+001 1.400000e+001
         vertex 2.500000e+000 4.500000e+001 2.500000e+000
         vertex 2.500000e+000 4.500000e+001 1.550000e+001
      endloop
   endfacet
   facet normal 1.000000e+000 0.000000e+000 -1.334403e-016
      outer loop
         vertex 2.500000e+000 4.000000e+001 1.400000e+001
         vertex 2.500000e+000 4.500000e+001 1.550000e+001
         vertex 2.500000e+000 1.500000e+001 1.550000e+001
      endloop
   endfacet
   facet normal 0.000000e+000 0.000000e+000 1.000000e+000
      outer loop
         vertex 2.500000e+000 1.500000e+001 2.500000e+000
         vertex 1.550000e+001 1.500000e+001 2.500000e+000
         vertex 2.500000e+000 4.500000e+001 2.500000e+000
      endloop
   endfacet
   facet normal 0.000000e+000 0.000000e+000 1.000000e+000
      outer loop
         vertex 2.500000e+000 4.500000e+001 2.500000e+000
         vertex 1.550000e+001 1.500000e+001 2.500000e+000
         vertex 1.550000e+001 4.500000e+001 2.500000e+000
      endloop
   endfacet
   facet normal -1.000000e+000 0.000000e+000 1.334403e-016
      outer loop
         vertex 1.550000e+001 4.000000e+001 3.500000e+000
         vertex 1.550000e+001 4.000000e+001 1.400000e+001
         vertex 1.550000e+001 4.500000e+001 2.500000e+000
      endloop
   endfacet
   facet normal -1.000000e+000 0.000000e+000 1.334403e-016
      outer loop
         vertex 1.550000e+001 4.000000e+001 3.500000e+000
         vertex 1.550000e+001 4.500000e+001 2.500000e+000
         vertex 1.550000e+001 2.000000e+001 3.500000e+000
      endloop
   endfacet
   facet normal -1.000000e+000 0.000000e+000 1.334403e-016
      outer loop
         vertex 1.550000e+001 2.000000e+001 3.500000e+000
         vertex 1.550000e+001 4.500000e+001 2.500000e+000
         vertex 1.550000e+001 1.500000e+001 2.500000e+000
      endloop
   endfacet
   facet normal -1.000000e+000 0.000000e+000 1.334403e-016
      outer loop
         vertex 1.550000e+001 2.000000e+001 3.500000e+000
         vertex 1.550000e+001 1.500000e+001 2.500000e+000
         vertex 1.550000e+001 2.000000e+001 1.400000e+001
      endloop
   endfacet
   facet normal -1.000000e+000 0.000000e+000 1.334403e-016
      outer loop
         vertex 1.550000e+001 2.000000e+001 1.400000e+001
         vertex 1.550000e+001 1.500000e+001 2.500000e+000
         vertex 1.550000e+001 1.500000e+001 1.550000e+001
      endloop
   endfacet
   facet normal -1.000000e+000 0.000000e+000 1.334403e-016
      outer loop
         vertex 1.550000e+001 2.000000e+001 1.400000e+001
         vertex 1.550000e+001 1.500000e+001 1.550000e+001
         vertex 1.550000e+001 4.000000e+001 1.400000e+001
      endloop
   endfacet
   facet normal -1.000000e+000 0.000000e+000 1.334403e-016
      outer loop
         vertex 1.550000e+001 4.000000e+001 1.400000e+001
         vertex 1.550000e+001 1.500000e+001 1.550000e+001
         vertex 1.550000e+001 4.500000e+001 1.550000e+001
      endloop
   endfacet
   facet normal -1.000000e+000 0.000000e+000 1.334403e-016
      outer loop
         vertex 1.550000e+001 4.000000e+001 1.400000e+001
         vertex 1.550000e+001 4.500000e+001 1.550000e+001
         vertex 1.550000e+001 4.500000e+001 2.500000e+000
      endloop
   endfacet
   facet normal 3.336007e-017 0.000000e+000 -1.000000e+000
      outer loop
         vertex 1.550000e+001 1.500000e+001 1.550000e+001
         vertex 2.500000e+000 1.500000e+001 1.550000e+001
         vertex 1.550000e+001 4.500000e+001 1.550000e+001
      endloop
   endfacet
   facet normal 3.336007e-017 0.000000e+000 -1.000000e+000
      outer loop
         vertex 1.550000e+001 4.500000e+001 1.550000e+001
         vertex 2.500000e+000 1.500000e+001 1.550000e+001
         vertex 2.500000e+000 4.500000e+001 1.550000e+001
      endloop
   endfacet
   facet normal 0.000000e+000 1.000000e+000 0.000000e+000
      outer loop
         vertex 1.550000e+001 1.500000e+001 1.550000e+001
         vertex 1.550000e+001 1.500000e+001 2.500000e+000
         vertex 2.500000e+000 1.500000e+001 1.550000e+001
      endloop
   endfacet
   facet normal 0.000000e+000 1.000000e+000 0.000000e+000
      outer loop
         vertex 2.500000e+000 1.500000e+001 1.550000e+001
         vertex 1.550000e+001 1.500000e+001 2.500000e+000
         vertex 2.500000e+000 1.500000e+001 2.500000e+000
      endloop
   endfacet
   facet normal 0.000000e+000 1.000000e+000 0.000000e+000
      outer loop
         vertex 1.800000e+001 2.000000e+001 3.500000e+000
         vertex 1.550000e+001 2.000000e+001 3.500000e+000
         vertex 1.800000e+001 2.000000e+001 1.400000e+001
      endloop
   endfacet
   facet normal 0.000000e+000 1.000000e+000 0.000000e+000
      outer loop
         vertex 1.800000e+001 2.000000e+001 1.400000e+001
         vertex 1.550000e+001 2.000000e+001 3.500000e+000
         vertex 1.550000e+001 2.000000e+001 1.400000e+001
      endloop
   endfacet
   facet normal 0.000000e+000 0.000000e+000 1.000000e+000
      outer loop
         vertex 1.800000e+001 4.000000e+001 3.500000e+000
         vertex 1.550000e+001 4.000000e+001 3.500000e+000
         vertex 1.800000e+001 2.000000e+001 3.500000e+000
      endloop
   endfacet
   facet normal 0.000000e+000 0.000000e+000 1.000000e+000
      outer loop
         vertex 1.800000e+001 2.000000e+001 3.500000e+000
         vertex 1.550000e+001 4.000000e+001 3.500000e+000
         vertex 1.550000e+001 2.000000e+001 3.500000e+000
      endloop
   endfacet
   facet normal 0.000000e+000 -1.000000e+000 0.000000e+000
      outer loop
         vertex 1.800000e+001 4.000000e+001 1.400000e+001
         vertex 1.550000e+001 4.000000e+001 1.400000e+001
         vertex 1.800000e+001 4.000000e+001 3.500000e+000
      endloop
   endfacet
   facet normal 0.000000e+000 -1.000000e+000 0.000000e+000
      outer loop
         vertex 1.800000e+001 4.000000e+001 3.500000e+000
         vertex 1.550000e+001 4.000000e+001 1.400000e+001
         vertex 1.550000e+001 4.000000e+001 3.500000e+000
      endloop
   endfacet
   facet normal 0.000000e+000 0.000000e+000 -1.000000e+000
      outer loop
         vertex 1.800000e+001 2.000000e+001 1.400000e+001
         vertex 1.550000e+001 2.000000e+001 1.400000e+001
         vertex 1.800000e+001 4.000000e+001 1.400000e+001
      endloop
   endfacet
   facet normal 0.000000e+000 0.000000e+000 -1.000000e+000
      outer loop
         vertex 1.800000e+001 4.000000e+001 1.400000e+001
         vertex 1.550000e+001 2.000000e+001 1.400000e+001
         vertex 1.550000e+001 4.000000e+001 1.400000e+001
      endloop
   endfacet
   facet normal 0.000000e+000 0.000000e+000 -1.000000e+000
      outer loop
         vertex 0.000000e+000 4.000000e+001 1.400000e+001
         vertex 2.500000e+000 4.000000e+001 1.400000e+001
         vertex 0.000000e+000 2.000000e+001 1.400000e+001
      endloop
   endfacet
   facet normal 0.000000e+000 0.000000e+000 -1.000000e+000
      outer loop
         vertex 0.000000e+000 2.000000e+001 1.400000e+001
         vertex 2.500000e+000 4.000000e+001 1.400000e+001
         vertex 2.500000e+000 2.000000e+001 1.400000e+001
      endloop
   endfacet
   facet normal 0.000000e+000 -1.000000e+000 0.000000e+000
      outer loop
         vertex 0.000000e+000 4.000000e+001 3.500000e+000
         vertex 2.500000e+000 4.000000e+001 3.500000e+000
         vertex 0.000000e+000 4.000000e+001 1.400000e+001
      endloop
   endfacet
   facet normal 0.000000e+000 -1.000000e+000 0.000000e+000
      outer loop
         vertex 0.000000e+000 4.000000e+001 1.400000e+001
         vertex 2.500000e+000 4.000000e+001 3.500000e+000
         vertex 2.500000e+000 4.000000e+001 1.400000e+001
      endloop
   endfacet
   facet normal 0.000000e+000 0.000000e+000 1.000000e+000
      outer loop
         vertex 0.000000e+000 2.000000e+001 3.500000e+000
         vertex 2.500000e+000 2.000000e+001 3.500000e+000
         vertex 0.000000e+000 4.000000e+001 3.500000e+000
      endloop
   endfacet
   facet normal 0.000000e+000 0.000000e+000 1.000000e+000
      outer loop
         vertex 0.000000e+000 4.000000e+001 3.500000e+000
         vertex 2.500000e+000 2.000000e+001 3.500000e+000
         vertex 2.500000e+000 4.000000e+001 3.500000e+000
      endloop
   endfacet
   facet normal 0.000000e+000 1.000000e+000 0.000000e+000
      outer loop
         vertex 0.000000e+000 2.000000e+001 1.400000e+001
         vertex 2.500000e+000 2.000000e+001 1.400000e+001
         vertex 0.000000e+000 2.000000e+001 3.500000e+000
      endloop
   endfacet
   facet normal 0.000000e+000 1.000000e+000 0.000000e+000
      outer loop
         vertex 0.000000e+000 2.000000e+001 3.500000e+000
         vertex 2.500000e+000 2.000000e+001 1.400000e+001
         vertex 2.500000e+000 2.000000e+001 3.500000e+000
      endloop
   endfacet
   facet normal 0.000000e+000 -1.000000e+000 0.000000e+000
      outer loop
         vertex 1.800000e+001 0.000000e+000 0.000000e+000
         vertex 1.800000e+001 0.000000e+000 1.800000e+001
         vertex 0.000000e+000 0.000000e+000 0.000000e+000
      endloop
   endfacet
   facet normal 0.000000e+000 -1.000000e+000 0.000000e+000
      outer loop
         vertex 0.000000e+000 0.000000e+000 0.000000e+000
         vertex 1.800000e+001 0.000000e+000 1.800000e+001
         vertex 0.000000e+000 0.000000e+000 1.800000e+001
      endloop
   endfacet
   facet normal 1.000000e+000 1.482670e-016 0.000000e+000
      outer loop
         vertex 3.285000e+000 4.575000e+000 0.000000e+000
         vertex 3.285000e+000 1.042500e+001 0.000000e+000
         vertex 3.285000e+000 4.575000e+000 1.800000e+001
      endloop
   endfacet
   facet normal 1.000000e+000 1.482670e-016 0.000000e+000
      outer loop
         vertex 3.285000e+000 4.575000e+000 1.800000e+001
         vertex 3.285000e+000 1.042500e+001 0.000000e+000
         vertex 3.285000e+000 1.042500e+001 1.800000e+001
      endloop
   endfacet
   facet normal 0.000000e+000 -1.000000e+000 0.000000e+000
      outer loop
         vertex 3.285000e+000 1.042500e+001 0.000000e+000
         vertex 1.471500e+001 1.042500e+001 0.000000e+000
         vertex 3.285000e+000 1.042500e+001 1.800000e+001
      endloop
   endfacet
   facet normal 0.000000e+000 -1.000000e+000 0.000000e+000
      outer loop
         vertex 3.285000e+000 1.042500e+001 1.800000e+001
         vertex 1.471500e+001 1.042500e+001 0.000000e+000
         vertex 1.471500e+001 1.042500e+001 1.800000e+001
      endloop
   endfacet
   facet normal -1.000000e+000 0.000000e+000 0.000000e+000
      outer loop
         vertex 1.471500e+001 1.042500e+001 0.000000e+000
         vertex 1.471500e+001 4.575000e+000 0.000000e+000
         vertex 1.471500e+001 1.042500e+001 1.800000e+001
      endloop
   endfacet
   facet normal -1.000000e+000 0.000000e+000 0.000000e+000
      outer loop
         vertex 1.471500e+001 1.042500e+001 1.800000e+001
         vertex 1.471500e+001 4.575000e+000 0.000000e+000
         vertex 1.471500e+001 4.575000e+000 1.800000e+001
      endloop
   endfacet
   facet normal 0.000000e+000 1.000000e+000 0.000000e+000
      outer loop
         vertex 1.471500e+001 4.575000e+000 0.000000e+000
         vertex 3.285000e+000 4.575000e+000 0.000000e+000
         vertex 1.471500e+001 4.575000e+000 1.800000e+001
      endloop
   endfacet
   facet normal 0.000000e+000 1.000000e+000 0.000000e+000
      outer loop
         vertex 1.471500e+001 4.575000e+000 1.800000e+001
         vertex 3.285000e+000 4.575000e+000 0.000000e+000
         vertex 3.285000e+000 4.575000e+000 1.800000e+001
      endloop
   endfacet
endsolid